<svg width="37" height="37" viewBox="0 0 37 37" fill="none" xmlns="http://www.w3.org/2000/svg">
<g clip-path="url(#clip0_1044_1521)">
<path d="M27.0581 8.40784H1.22314C0.674365 8.40784 0.229492 8.85271 0.229492 9.40149V35.2364C0.229492 35.7852 0.674365 36.2301 1.22314 36.2301H27.0581C27.6069 36.2301 28.0517 35.7852 28.0517 35.2364V9.40149C28.0517 8.85271 27.6069 8.40784 27.0581 8.40784Z" fill="#DCE1E5"/>
<path d="M4.2041 8.40783H6.1914V5.92371C6.1914 5.65045 5.96783 5.42688 5.69458 5.42688H4.70093C4.42767 5.42688 4.2041 5.65045 4.2041 5.92371V8.40783Z" fill="#ACB4BC"/>
<path d="M9.17188 8.40783H11.1592V5.92371C11.1592 5.65045 10.9356 5.42688 10.6624 5.42688H9.6687C9.39545 5.42688 9.17188 5.65045 9.17188 5.92371V8.40783Z" fill="#ACB4BC"/>
<path d="M14.1406 8.40783H16.1279V5.92371C16.1279 5.65045 15.9044 5.42688 15.6311 5.42688H14.6375C14.3642 5.42688 14.1406 5.65045 14.1406 5.92371V8.40783Z" fill="#ACB4BC"/>
<path d="M19.1084 8.40783H21.0957V5.92371C21.0957 5.65045 20.8721 5.42688 20.5989 5.42688H19.6052C19.332 5.42688 19.1084 5.65045 19.1084 5.92371V8.40783Z" fill="#ACB4BC"/>
<path d="M27.5711 2.97676L11.3301 19.2178L17.2356 25.1233L33.4766 8.88227L27.5711 2.97676Z" fill="#00DFDD"/>
<path d="M32.0037 7.40584L15.7627 23.6469L17.2382 25.1223L33.4792 8.88134L32.0037 7.40584Z" fill="#00CCCC"/>
<path d="M27.5752 2.97803L30.1784 0.374827C30.3716 0.181607 30.6878 0.181607 30.881 0.374827L36.0839 5.57771C36.2771 5.77093 36.2771 6.08711 36.0839 6.28033L33.4807 8.88353L27.5752 2.97803Z" fill="#495057"/>
<path d="M17.241 25.126L11.3338 19.2188L9.98242 24.2615L12.1983 26.4724L17.241 25.126Z" fill="#F8F9FA"/>
<path d="M9.98186 24.2615L9.87752 24.649L9.39064 26.4574C9.29127 26.8251 9.62911 27.1629 9.99676 27.0636L12.1927 26.4773L9.97689 24.2615H9.98186Z" fill="#212529"/>
</g>
<defs>
<clipPath id="clip0_1044_1521">
<rect width="36" height="36" fill="white" transform="translate(0.230469 0.22998)"/>
</clipPath>
</defs>
</svg>
